
******* Icarus.2010.DVDRiP.XViD.Optional.NORDIC.Zen_Bud ********
Format                           : AVI
File size                        : 706 MiB
Duration                         : 1h 24mn
Overall bit rate                 : 1 168 Kbps

Video

Format                           : MPEG-4 Visual
Codec ID/Hint                    : XviD
Duration                         : 1h 24mn
Bit rate                         : 1 027 Kbps
Width                            : 720 pixels
Height                           : 576 pixels
Display aspect ratio             : 16:9
Stream size                      : 621 MiB (88%)
Writing library                  : XviD 1.1.2 (UTC 2006-11-01)

Audio

Format                           : MPEG Audio
Codec ID/Hint                    : MP3
Duration                         : 1h 24mn
Bit rate                         : 128 Kbps
Channel(s)                       : 2 channels
Sampling rate                    : 48.0 KHz
Stream size                      : 77.3 MiB (11%)


